<svg width="103" height="100" viewBox="0 0 103 100" fill="none" xmlns="http://www.w3.org/2000/svg">
<path fill-rule="evenodd" clip-rule="evenodd" d="M48.938 99.9351C47.7403 99.8593 39.9968 99.6882 30.7774 95.7418C23.1308 92.4685 18.4668 88.2738 17.6938 87.6672C16.8363 86.9942 14.5585 84.8256 14.3188 84.57C12.294 82.4117 12.2673 82.4375 10.4122 80.129C9.79927 79.3661 8.54747 77.5615 8.39016 77.3347C5.13171 72.6366 3.04334 67.2307 2.61125 65.8413C1.96941 63.777 1.93161 63.7904 1.88159 63.6091C1.11654 60.8336 0.877703 59.3353 0.817485 58.9584C0.589396 57.5269 -0.556789 52.8357 0.334626 43.9171C0.424676 43.0155 1.10097 39.411 1.27644 38.7126C2.92234 32.1629 5.12633 28.1235 6.27103 26.0679C10.1189 19.1575 14.9962 14.7242 15.9491 13.8295C17.3443 12.5197 17.3808 12.5667 18.8537 11.3432C21.6067 9.0566 25.5362 6.73263 27.0424 5.97314C29.1588 4.90626 30.7989 4.02214 34.6714 2.70172C37.8499 1.61793 41.3818 0.897264 42.2513 0.756659C48.3004 -0.221072 52.3599 -0.0362609 55.2305 0.143163C57.2173 0.267423 60.8884 0.853615 61.362 0.961344C64.2794 1.62462 64.4263 1.66808 64.6885 1.74572C68.3777 2.8388 68.3924 2.79459 71.9432 4.2779C73.4398 4.90329 73.4131 4.94768 74.8809 5.6494C78.4616 7.36099 82.7037 10.4001 84.7237 12.1276C88.9616 15.7525 90.9768 18.2161 93.0061 20.911C93.5402 21.6204 94.9115 23.6215 94.9825 23.7372C97.467 27.7806 99.089 30.9588 100.869 36.6634C100.906 36.781 101.674 39.873 101.705 40.0307C102.465 43.8931 102.575 45.6626 102.606 46.1571C102.955 51.7774 102.597 55.439 102.194 57.8689C101.614 61.3699 101.481 61.3401 101.22 62.5062C100.879 64.0304 100.771 63.9947 100.333 65.4908C99.7968 67.3224 98.1891 70.892 97.9047 71.4404C97.3212 72.5651 97.3477 72.6158 97.1637 72.9288C96.8057 73.5376 96.8161 73.5393 96.4824 74.1602C95.8422 75.3519 93.8678 78.3262 93.4502 78.8767C92.6012 79.9954 90.2201 83.1298 87.1667 85.9712C70.4898 101.491 50.8427 99.9962 48.938 99.9351Z" fill="#CD3D30"/>
<path fill-rule="evenodd" clip-rule="evenodd" d="M100.809 60.4531C100.762 60.6234 100.728 60.611 100.703 60.8424C100.703 60.8424 100.635 61.3398 100.629 61.3831C100.62 61.4436 100.573 61.741 100.431 62.1227C100.37 62.3086 100.309 62.4945 100.247 62.6803C100.177 62.8941 100.13 62.8768 100.063 63.2371C100.032 63.4045 100.046 63.4033 100.04 63.4165C100.028 63.4414 99.9771 63.4258 99.9653 63.4505C99.9397 63.5038 99.9462 63.5675 99.939 63.6264C99.9095 63.8664 99.9875 63.8512 100.012 63.9641C99.8728 64.3177 99.8788 64.3181 99.8617 64.3462C99.8465 64.3709 99.7909 64.3519 99.7815 64.3792C99.7667 64.4218 99.8176 64.4695 99.8041 64.5124C99.7956 64.5391 99.7418 64.5241 99.7279 64.5486C99.6988 64.6001 99.7155 64.6697 99.6862 64.721C99.6723 64.7453 99.6169 64.7284 99.6097 64.7555C99.5979 64.8008 99.6525 64.8473 99.6408 64.8926C99.634 64.9195 99.5793 64.9038 99.5654 64.9277C99.4726 65.0869 99.5703 65.1138 99.4815 65.2713C99.4672 65.297 99.4094 65.281 99.4022 65.3094C99.3907 65.354 99.45 65.3982 99.4378 65.4424C99.4298 65.4712 99.3711 65.4521 99.3559 65.4777C99.263 65.6345 99.3677 65.6619 99.2862 65.8252C99.2736 65.8505 99.2221 65.836 99.2095 65.8612C99.1584 66.1887 99.1645 66.1881 99.1543 66.2149C99.1105 66.3297 99.0755 66.3052 99.0262 66.4212C98.981 66.528 98.971 66.6475 98.9258 66.7541C98.9128 66.7779 98.8723 66.7764 98.8593 66.8C98.8569 66.8044 98.8008 67.0266 98.6853 67.2903C98.3142 68.1388 98.3903 68.1622 98.3561 68.2344C98.344 68.2601 98.2983 68.2565 98.286 68.2822C98.2366 68.3851 98.2258 68.5037 98.1771 68.607C98.1648 68.633 98.1209 68.633 98.1083 68.6588C98.0581 68.7604 98.0418 68.8765 97.9935 68.979C97.9812 69.0047 97.9421 69.0103 97.9303 69.0361C97.8832 69.139 97.8678 69.2543 97.8206 69.357C97.8091 69.3821 97.7672 69.3851 97.7578 69.4111C97.7452 69.4449 97.7707 69.4845 97.7609 69.5192C97.7517 69.5509 97.6913 69.7612 97.6199 69.9089C97.6084 69.9328 97.5708 69.9352 97.5579 69.9585C97.5297 70.0088 97.5208 70.0677 97.5006 70.1219C97.4278 70.319 97.3942 70.2969 97.3073 70.4906C97.2884 70.5329 97.2833 70.5296 97.0416 71.0068C96.2475 72.5759 96.2251 72.564 96.1732 72.708C96.1295 72.8294 96.1174 72.82 96.0515 72.9279C95.964 73.0705 96.0094 73.0885 95.9214 73.2277C95.7491 73.4999 95.7261 73.4797 95.7129 73.5042C95.6614 73.6006 95.6433 73.7128 95.5912 73.809C95.5758 73.8372 95.5323 73.8413 95.5153 73.8688C95.4867 73.9154 95.488 73.9766 95.4593 74.0232L95.4243 74.1887C95.3698 74.2613 95.4417 74.2817 95.3893 74.3512C95.3481 74.4058 95.3205 74.3441 95.2703 74.3935C95.2331 74.4301 95.2351 74.494 95.2023 74.5349C95.1791 74.5639 95.1332 74.5668 95.1089 74.5951C95.075 74.6343 95.0646 74.69 95.0331 74.7312C95.0116 74.7591 94.9707 74.7689 94.9525 74.799C94.6755 75.2539 94.7185 75.2711 94.6922 75.3085C94.6724 75.3367 94.6177 75.3315 94.6049 75.3635C94.5927 75.3937 94.6442 75.4272 94.6325 75.4576C94.6198 75.4905 94.5666 75.489 94.5453 75.5171C94.5132 75.5594 94.5099 75.6194 94.4776 75.6618C94.4561 75.6898 94.4119 75.6933 94.3896 75.7208C94.3563 75.7621 94.3492 75.8208 94.3159 75.8618C94.2931 75.8898 94.2484 75.8939 94.226 75.9222C94.1274 76.0474 94.173 76.0676 94.0787 76.2008C93.723 76.7034 93.7489 76.7171 93.717 76.7599C92.2438 78.7356 92.1213 78.8892 91.9772 79.0701C91.687 79.4341 91.7398 79.47 91.4239 79.8169C91.1884 80.0759 91.2094 80.0861 90.833 80.5326C90.6607 80.7371 90.66 80.7293 90.4808 80.9241C89.8119 81.6517 89.8857 81.7124 89.197 82.423C88.2692 83.3803 88.2842 83.3913 88.2025 83.4734C88.1067 83.5694 88.1125 83.5668 88.0211 83.6628C87.9778 83.7085 87.7237 83.9758 87.4649 84.2186C86.2159 85.39 86.235 85.4066 84.9392 86.5249C84.8038 86.6419 83.3104 87.9309 83.2326 87.9688C83.1118 88.0275 83.1251 88.0404 83.0247 88.1258C82.9873 88.1577 82.9337 88.1663 82.8953 88.1975C82.5183 88.504 82.5326 88.5142 82.4953 88.5331C82.3701 88.597 82.3806 88.6065 82.0882 88.8563C81.4809 89.3749 81.4208 89.2896 80.7985 89.7926C80.6762 89.8912 78.0084 91.6387 77.6503 91.838C77.5042 91.9191 75.651 93.0252 75.2625 93.1757C74.89 93.32 74.3129 93.6506 74.1422 93.7193C74.0874 93.7414 71.5076 94.9383 71.3479 94.9853C71.0653 95.0683 71.077 95.0897 70.8037 95.2C70.4207 95.3548 70.4242 95.3486 70.0338 95.4996C69.5708 95.6787 66.7265 96.779 64.1238 97.3958C63.5077 97.5418 61.9331 97.9687 60.7904 98.1414C58.2555 98.5246 58.2642 98.5697 56.7173 98.7181C55.0465 98.8784 55.0527 98.9765 51.5283 98.9852C46.9352 98.9965 46.4561 98.7946 46.1509 98.7677C45.1361 98.6786 45.1344 98.7047 45.0479 98.6856C43.8682 98.4248 43.8541 98.5224 43.7522 98.498C43.0993 98.3433 43.0955 98.392 42.083 98.3245C41.8046 98.2337 41.8106 98.2235 41.5182 98.1878C40.9542 98.1464 40.9716 98.0755 40.4104 97.9804C39.659 97.8531 38.9427 97.6265 38.924 97.6224C38.8643 97.6096 38.6874 97.5719 38.1897 97.412C38.1137 97.3877 37.7209 97.2616 37.2371 97.1152C37.0291 97.0522 35.5203 96.7994 33.5297 96.0056C31.8786 95.3471 31.8635 95.3936 31.7252 95.3249C30.6448 94.7866 30.6154 94.8646 29.5198 94.3581C28.0475 93.6774 25.837 92.5079 25.6096 92.3658C24.8742 91.9061 24.2296 91.5397 24.1081 91.4706C22.8607 90.7612 22.2341 90.2635 19.9632 88.5918C17.6951 86.9222 14.8374 84.3016 13.0629 82.3036C10.5573 79.4822 8.6898 76.9474 6.70983 73.4444C6.34166 72.7926 6.35889 72.7873 5.99851 72.1305C5.36798 70.9808 4.7015 69.4464 4.5983 69.2086C4.15046 68.178 4.16472 68.1767 3.72707 67.1404C2.78767 64.9162 1.4562 60.0712 1.07544 57.3061C0.357078 52.0924 0.50957 48.974 0.530878 48.0093C0.575347 46.0029 1.10101 42.2198 1.16493 41.8853C1.50234 40.1208 3.23681 28.2065 13.1397 17.3319C14.8341 15.4713 24.1498 4.9843 40.7759 1.54069C42.0552 1.27583 48.5383 -0.0670638 57.0882 0.826713C63.1141 1.45655 73.0813 3.89772 81.8902 10.5268C84.5111 12.4991 84.4595 12.5586 84.6897 12.7263C85.3747 13.2255 88.6987 16.3861 89.4897 17.3833C89.5733 17.4888 89.6668 17.586 89.7567 17.6863C91.7523 19.9138 92.1895 20.6945 92.4977 21.0632C92.6518 21.2478 92.639 21.2554 92.6539 21.2699C92.6826 21.2983 92.7424 21.2831 92.7661 21.316C92.7819 21.3377 92.7356 21.3672 92.7428 21.3932C92.7495 21.417 92.8832 21.5842 92.896 21.6003C93.0454 21.7866 93.0389 21.7905 93.0522 21.8063C93.2079 21.9908 93.194 21.9999 93.2094 22.014C93.2423 22.0446 93.3102 22.0225 93.3368 22.0587C93.3389 22.0615 93.3337 22.2062 93.4441 22.3504C93.6031 22.5578 93.5946 22.5586 93.7387 22.7724C94.0092 23.173 94.0309 23.1559 94.0541 23.1908C94.1391 23.3194 94.1002 23.3357 94.1893 23.4657C94.4519 23.8493 94.624 24.2148 94.6698 24.256C94.7037 24.2867 94.7789 24.2423 94.8048 24.2802C94.8404 24.3326 94.7989 24.4087 94.8154 24.4698C94.8178 24.4789 95.2834 25.2438 95.3244 25.311C96.5986 27.4041 97.8336 30.0253 98.0481 30.5452C99.5413 34.1647 99.7222 35.1171 99.8782 35.5694C100.253 36.6571 100.229 36.6595 100.517 37.7754C101.113 40.0905 101.083 40.094 101.536 42.4414C101.853 44.0798 102.065 48.7101 102.073 49.6815C102.091 51.6657 101.67 57.4963 101.298 58.7673C101.05 59.615 101.032 59.6035 100.809 60.4531Z" fill="#F2987D"/>
<path fill-rule="evenodd" clip-rule="evenodd" d="M54.3124 1.1266C55.7058 1.1944 63.2416 1.56105 71.3169 5.00168C71.5791 5.11349 72.9058 5.6787 74.5448 6.51062C75.4394 6.96457 79.3858 9.13735 82.2633 11.4489C82.6748 11.7793 83.4176 12.3471 83.5186 12.4244C84.8525 13.4439 89.6108 17.7267 93.467 23.4489C93.8799 24.0615 95.5235 26.7841 95.9286 27.6123C97.1824 30.176 97.2299 30.1528 98.6369 33.6896C98.8619 34.2547 99.9969 37.847 100.367 39.846C100.422 40.1422 100.469 40.4966 100.813 42.065C100.822 42.1092 101.384 46.2306 101.424 48.7492C101.517 54.6693 100.773 62.1204 96.4644 70.9933C94.0374 75.9914 90.7268 79.8657 90.1306 80.5633C89.6047 81.1785 81.9253 91.0721 67.8417 95.7635C67.4176 95.9047 59.606 98.8215 49.6767 98.5234C45.9152 98.4103 41.1494 97.6859 37.8056 96.7199C34.9045 95.8816 34.9197 95.8474 32.0889 94.7807C30.1636 94.0552 25.5485 91.7435 23.1512 90.0307C22.4953 89.5618 21.6335 88.9797 21.5005 88.8898C21.2959 88.7517 18.8676 86.8781 18.3727 86.4446C16.2119 84.5513 12.5302 81.292 8.79241 75.64C8.62584 75.3881 7.33884 73.2614 7.13243 72.863C6.42112 71.4909 4.59159 68.531 2.77782 62.316C2.73168 62.1585 2.10412 59.408 2.04631 59.1549C1.98924 58.9054 1.32499 55.1188 1.18343 52.4619C0.737628 44.094 2.49989 38.2635 3.34461 35.3747C3.39335 35.2077 3.4128 35.2166 4.07038 33.3254C4.15913 33.0706 4.75038 31.614 4.8106 31.4658C5.15616 30.6144 5.21805 30.6461 5.54971 29.7923C5.59048 29.687 5.65106 29.7178 6.16135 28.5185C6.32495 28.1338 6.33421 28.1435 6.55786 27.7911C6.84746 27.335 6.76483 27.183 7.28456 26.4865C7.36089 26.3843 7.28845 26.3453 8.10538 25.1193C8.17856 25.0093 8.10815 24.9699 8.95102 23.7002C9.08091 23.5048 10.4535 21.4372 10.5919 21.2698C10.8426 20.9669 10.8637 20.9897 11.1068 20.6818C11.1695 20.6025 11.5256 20.0926 11.6786 19.949C12.1128 19.5413 12.0316 19.4771 12.4428 19.0402C12.8506 18.6065 12.805 18.5738 13.2056 18.1316C16.5159 14.4764 16.817 14.5297 17.8555 13.5178C18.3895 12.9976 21.2055 10.7133 22.0964 10.158C23.1781 9.48394 24.1961 8.62434 27.056 7.11762C28.3598 6.43076 38.8773 0.164289 54.3124 1.1266Z" fill="#CD3D30"/>
<path fill-rule="evenodd" clip-rule="evenodd" d="M14.4316 45.5232C14.4651 45.2179 14.4638 45.2197 14.4678 45.1935C14.8226 42.8304 14.9643 42.2935 15.0297 42.0462C15.4943 40.2867 15.4202 40.271 15.7281 39.3992C16.3252 37.7076 16.3012 37.7018 16.3601 37.5576C16.8553 36.3472 16.842 36.3425 16.887 36.2381C16.9461 36.1018 17.3931 35.0681 17.6513 34.5439C20.0862 29.6004 23.319 25.7529 26.4615 23.016C27.6346 21.9945 28.8964 20.893 31.6505 19.1978C34.2501 17.5976 36.3732 16.7703 36.8483 16.5709C38.8433 15.7341 40.1995 15.3944 40.5358 15.2851C42.1714 14.7535 42.1941 14.8491 43.8657 14.4359C45.1831 14.1103 49.0808 13.7579 49.8679 13.7255C53.4654 13.5771 55.9208 13.9932 56.2182 14.0254C58.7989 14.3058 58.7742 14.4408 60.2235 14.7172C61.9765 15.0515 65.3597 16.2624 65.8577 16.4874C66.9799 16.9946 66.9863 16.9781 67.0828 17.0244C67.2983 17.1276 69.0721 17.9772 69.7553 18.361C71.3463 19.2548 71.316 19.2961 71.4274 19.3619C71.536 19.4258 72.2444 19.8434 72.7566 20.2059C75.8578 22.4011 77.5762 24.1505 78.5926 25.2143C80.2523 26.9514 80.4634 27.3664 81.2042 28.2584C82.2265 29.4891 84.0706 32.5527 84.578 33.5523C86.473 37.2859 86.9448 39.3064 87.0297 39.5586C87.4676 40.8584 87.3835 40.8763 87.7379 42.206C88.3806 44.6164 88.8153 49.6253 88.4325 52.8537C87.9566 56.8667 87.7124 57.3368 87.553 58.002C86.3404 63.0586 84.2074 66.5582 83.4403 67.8401C82.1856 69.9368 82.061 69.9408 81.6368 70.5351C78.2682 75.2546 73.6823 78.4903 71.6753 79.7201C68.9611 81.383 67.7814 81.8144 66.8682 82.2507C64.5775 83.3451 60.8853 84.3342 59.8642 84.5409C56.5178 85.2185 53.4632 85.5446 49.7053 85.4094C42.4146 85.147 37.2821 82.7398 35.2275 81.8707C35.0285 81.7866 32.9435 80.7017 32.72 80.5698C27.9235 77.7407 25.7257 75.4492 25.1209 74.866C22.9941 72.8153 23.0545 72.7604 21.1985 70.4636C20.1137 69.1211 18.0458 65.7375 17.0283 63.3185C15.6152 59.9587 15.1652 57.6895 15.0274 57.1688C14.7564 56.1435 14.2838 52.7501 14.2485 52.0131C14.0483 47.8338 14.2935 46.5685 14.4316 45.5232Z" fill="#FDF5DE"/>
<path fill-rule="evenodd" clip-rule="evenodd" d="M51.2142 15.4651C51.6279 15.4641 53.8887 15.4591 56.3772 15.7646C59.3999 16.1357 62.9019 17.2503 63.2235 17.3773C63.8873 17.6393 63.8843 17.6326 64.5632 17.8651C64.6004 17.8779 66.2803 18.5893 66.4205 18.6596C67.5901 19.2467 67.6016 19.2199 67.7016 19.2741C68.3724 19.6379 68.3615 19.6465 68.4204 19.6762C73.6813 22.3361 78.6635 27.2607 81.3103 31.4379C83.249 34.4974 83.805 35.9748 84.3208 37.2251C84.7249 38.2044 84.689 38.2138 85.0486 39.2143C86.0744 42.0688 86.2675 44.1055 86.5495 45.7581C86.9529 48.1227 86.8088 52.696 86.588 53.9843C86.1024 56.819 86.1679 56.8279 85.8029 58.1969C84.4269 63.3567 82.8084 65.9587 82.2008 67.0582C81.2973 68.6931 79.2884 71.5142 77.4099 73.4683C74.6114 76.3794 72.3918 77.8278 71.4076 78.5128C71.2982 78.5889 70.6076 79.0694 70.0099 79.4171C65.5585 82.0063 63.4667 82.4905 60.8684 83.3004C60.1608 83.521 57.7582 84.0224 57.2274 84.1003C52.1638 84.8435 48.7889 84.4559 48.3748 84.4268C42.7981 84.035 37.5825 82.0097 35.1779 80.7302C33.8441 80.0205 33.8402 80.0317 33.7265 79.9661C30.0728 77.8582 28.7428 76.5604 28.3102 76.2162C25.9151 74.3103 23.7557 71.691 23.1882 70.9461C23.107 70.8395 22.2997 69.7799 22.1864 69.603C22.0145 69.3342 18.9711 65.3541 17.2664 59.5014C16.8105 57.9358 16.8438 57.9326 16.5056 56.3365C16.3772 55.7302 15.7915 52.9652 15.9821 48.6067C16.1304 45.218 16.6072 43.4536 16.6464 43.2268C16.9112 41.6919 17.3013 40.6124 17.3223 40.5378C17.6872 39.2376 17.7587 39.266 17.999 38.5254C18.3369 37.4843 18.3831 37.5055 18.79 36.4916C19.1316 35.6407 20.1737 33.6893 20.5856 33.0282C20.6974 32.8488 20.9422 32.3819 20.9463 32.3749C20.9523 32.3645 22.1186 30.592 22.344 30.2939C24.4108 27.5601 25.3502 26.5299 27.2322 24.8035C32.1197 20.3197 36.9606 18.4828 37.4001 18.2817C39.0566 17.524 42.246 16.5962 42.8943 16.4572C44.7444 16.0603 47.0807 15.5078 51.2142 15.4651Z" fill="#DF903B"/>
<path fill-rule="evenodd" clip-rule="evenodd" d="M57.0832 16.761C60.1448 17.2288 62.4522 18.0474 62.9046 18.2079C63.8276 18.5353 63.8413 18.4918 64.7357 18.8888C65.6521 19.2957 67.3196 19.8508 70.6355 21.9824C74.3173 24.3495 76.932 27.2579 77.4096 27.7894C83.6496 34.7309 84.811 41.6044 85.2837 43.3957C85.2942 43.4355 85.9591 46.7747 85.9157 50.2867C85.903 51.3072 85.8923 52.7791 85.3979 55.9921C85.3715 56.1635 84.8407 58.5052 84.5709 59.3486C83.7429 61.9372 83.5838 62.4486 82.217 65.2159C81.669 66.3256 79.9007 69.366 77.9089 71.6079C76.186 73.547 75.9878 73.741 74.1311 75.3701C73.5865 75.8479 72.0755 76.9948 71.894 77.1326C71.6309 77.3323 70.7714 77.9847 68.4088 79.341C64.7146 81.4619 60.3149 82.5669 59.581 82.7513C58.8537 82.934 55.7837 83.4357 55.4064 83.4606C51.9982 83.6859 49.3914 83.9333 44.3953 82.993C41.7393 82.4932 36.3528 80.9953 31.0831 77.2729C25.0914 73.0405 22.0414 67.7677 21.8158 67.4522C21.454 66.9467 20.3688 64.9715 19.9877 64.0801C19.7281 63.4727 19.679 63.4969 19.3185 62.5666C19.0197 61.7952 18.9709 61.8167 18.7212 61.0288C18.4688 60.2333 16.7399 55.7951 16.8327 49.4468C16.8335 49.3922 16.7658 47.4621 17.4477 43.7218C17.6962 42.3589 17.7545 42.3754 18.2202 40.5521C18.3367 40.0962 19.3627 37.1861 20.2685 35.4592C21.0854 33.9015 21.4467 32.9267 24.0695 29.4852C24.5549 28.8482 26.5407 26.4961 28.1284 25.1714C28.6826 24.7092 29.4236 23.8458 32.5078 21.8448C36.9362 18.9715 41.2266 17.8389 42.0319 17.6264C43.5255 17.2321 43.5154 17.1972 45.0397 16.9415C45.9204 16.794 48.1696 16.1553 53.8949 16.4103C55.7029 16.4908 56.8313 16.7116 57.0832 16.761Z" fill="#FEF9E3"/>
<path fill-rule="evenodd" clip-rule="evenodd" d="M83.9613 53.3664C83.576 56.7366 83.0711 58.1978 83.0142 58.4374C82.6875 59.8136 82.5879 59.7789 82.1913 61.1388C82.0867 61.4979 80.5116 65.5896 78.5844 68.2273C78.2181 68.7286 78.2913 68.7855 76.5136 70.9806C76.3708 71.1573 76.2855 71.2625 74.6098 73.0807C74.436 73.2692 73.2706 74.3387 73.1528 74.4467C73.0311 74.5585 71.1346 76.1264 70.7526 76.3776C70.7526 76.3776 69.1099 77.4961 68.9671 77.5935C68.6264 77.8255 66.416 79.1999 64.532 79.968C62.5986 80.7561 51.5477 85.9646 37.8128 79.8354C37.7072 79.7883 35.5246 78.6943 35.0052 78.3712C34.0217 77.7595 30.2427 75.6283 26.2575 70.9938C25.5583 70.1808 25.1695 69.6129 25.0829 69.4865C24.8893 69.2038 24.582 68.9445 23.7762 67.6175C23.6851 67.4674 22.7645 66.152 21.955 64.4002C21.5605 63.5466 21.5394 63.5608 21.1692 62.6922C20.7697 61.7544 20.7864 61.752 20.4417 60.7946C20.1161 59.8905 20.0771 59.9052 19.8563 58.9659C19.7817 58.6484 19.5969 58.5123 18.8835 54.5633C18.6584 53.3184 18.2984 47.6932 19.0781 44.2433C19.2926 43.2942 19.2433 43.0002 19.6394 41.7295C20.0367 40.4548 19.9647 40.4357 20.431 39.1863C20.7479 38.3368 20.7077 38.3234 21.0803 37.496C21.1361 37.3721 23.1825 31.8749 28.4698 26.7039C33.5051 21.7796 39.1183 19.5347 40.8871 19.0255C41.8702 18.7426 41.8398 18.6444 43.3705 18.274C45.0076 17.8779 44.9974 17.8415 46.7897 17.6221C48.5797 17.4028 50.6007 16.9582 55.0067 17.4814C55.8317 17.5795 57.1198 17.7852 57.3031 17.8145C58.7083 18.039 58.6859 18.1306 60.0729 18.4341C60.6639 18.5636 62.3906 19.0868 63.2351 19.4811C63.8893 19.7864 63.9188 19.7015 65.1444 20.2931C65.8106 20.6148 65.8119 20.6008 66.4632 20.9475C67.9614 21.7452 68.2079 21.8202 70.8641 23.685C72.8142 25.054 75.7907 27.978 77.0448 29.6512C77.1172 29.7479 77.3991 30.0116 78.3333 31.3651C79.9919 33.7685 80.3409 34.7983 80.7889 35.6003C80.8475 35.7053 80.837 35.7099 81.4305 36.9621C81.4719 37.0493 82.5909 39.7875 82.9825 41.3866C83.3794 43.0079 83.4645 42.989 83.7401 45.0837C84.0525 47.4588 84.3523 49.212 83.9613 53.3664Z" fill="#131417"/>
<path fill-rule="evenodd" clip-rule="evenodd" d="M100.248 62.679C100.235 62.7867 100.197 62.8049 100.185 63.2198C100.176 63.5373 100.08 63.5352 100.058 63.6062C100.058 63.6062 100.016 63.9342 100.012 63.9628C99.9877 63.8499 99.9097 63.8651 99.9392 63.6251C99.9464 63.5662 99.9399 63.5025 99.9655 63.4492C99.9773 63.4245 100.029 63.4401 100.04 63.4152C100.046 63.402 100.032 63.4031 100.063 63.2358C100.13 62.8755 100.177 62.8927 100.248 62.679Z" fill="#D64939"/>
<path fill-rule="evenodd" clip-rule="evenodd" d="M99.2085 65.8615C99.2183 65.9168 99.2765 65.9554 99.2865 66.0108C99.3074 66.1285 99.2752 66.1209 99.1494 66.3995C99.1258 66.4515 99.1277 66.5143 99.0971 66.5626C99.0512 66.6352 98.9708 66.6817 98.9248 66.7543C98.97 66.6477 98.98 66.5283 99.0252 66.4215C99.0745 66.3054 99.1095 66.3299 99.1533 66.2151C99.1634 66.1883 99.1573 66.1889 99.2085 65.8615Z" fill="#D44F3A"/>
<path fill-rule="evenodd" clip-rule="evenodd" d="M100.809 60.4537C100.763 61.1861 100.703 61.1742 100.629 61.3837C100.635 61.3405 100.702 60.843 100.702 60.843C100.727 60.6116 100.762 60.6241 100.809 60.4537Z" fill="#C84734"/>
<path fill-rule="evenodd" clip-rule="evenodd" d="M41.5186 98.1884C41.8109 98.224 41.805 98.2342 42.0833 98.3251C41.9899 98.3139 41.9934 98.3206 41.9008 98.3098C41.6405 98.2792 41.5554 98.2001 41.5186 98.1884Z" fill="#D0493B"/>
<path d="M38.0869 69.5319V36.2986C38.2515 33.7718 40.4458 32.8618 41.2686 32.6421C46.6446 31.7998 58.1426 30.1262 61.1268 30.6096C64.111 31.093 65.113 33.0393 65.241 34.2112C65.3507 38.3127 65.241 48.2083 65.241 51.2081V51.2207C65.241 52.792 65.2411 55.0442 62.9838 55.4204C58.0799 56.1749 54.3076 56.5521 50.1554 57.1174C48.5446 57.3368 48.2356 57.6904 47.8518 58.1296L47.8514 58.1301L38.0869 72.7728V69.5319Z" fill="#FDF5DE"/>
<path d="M46.3933 54.8995V48.3997L41.0127 49.8621V63.1327L46.3933 54.8995Z" fill="#CD3D30"/>
<path d="M54.6864 40.3311L49.4053 41.3047V54.6656L54.6864 53.9112V40.3311Z" fill="#CD3D30"/>
<path d="M62.9853 33.6992L57.7041 34.6729L57.7042 53.1567L62.9853 52.4023L62.9853 33.6992Z" fill="#CD3D30"/>
</svg>
